<svg xmlns="http://www.w3.org/2000/svg" version="1.1" xmlns:xlink="http://www.w3.org/1999/xlink" xmlns:svgjs="http://svgjs.dev/svgjs" width="2000" height="1015" viewBox="0 0 2000 1015"><g transform="matrix(1,0,0,1,-1.2121212121212466,-0.34245005269485773)"><svg viewBox="0 0 396 201" data-background-color="#ffffff" preserveAspectRatio="xMidYMid meet" height="1015" width="2000" xmlns="http://www.w3.org/2000/svg" xmlns:xlink="http://www.w3.org/1999/xlink"><g id="tight-bounds" transform="matrix(1,0,0,1,0.2400000000000091,0.06781523211002138)"><svg viewBox="0 0 395.52 200.86436953577996" height="200.86436953577996" width="395.52"><g><svg viewBox="0 0 395.52 200.86436953577996" height="200.86436953577996" width="395.52"><g transform="matrix(1,0,0,1,0,148.31997601984926)"><svg viewBox="0 0 395.52 52.54439351593069" height="52.54439351593069" width="395.52"><g id="textblocktransform"><svg viewBox="0 0 395.52 52.54439351593069" height="52.54439351593069" width="395.52" id="textblock"><g><svg viewBox="0 0 395.52 52.54439351593069" height="52.54439351593069" width="395.52"><g transform="matrix(1,0,0,1,0,0)"><svg width="395.52" viewBox="2.1 -35.05 268.33 35.65" height="52.54439351593069" data-palette-color="#ff5c40"><path d="M21.4 0.25L21.4 0.25Q21.1 0.25 20.8 0.13 20.5 0 20.35-0.25L20.35-0.25 9.1-25.7 8.95-25.7 9.05-5.85Q9.1-4.9 9.22-4.03 9.35-3.15 10-2.58 10.65-2 12.2-2L12.2-2Q12.75-2 13.1-1.9 13.45-1.8 13.5-0.95L13.5-0.95Q13.5-0.55 13.28-0.2 13.05 0.15 12.6 0.15L12.6 0.15Q11.55 0.1 10.9 0.08 10.25 0.05 9.65 0.03 9.05 0 8.05 0L8.05 0Q6.55 0 5.63 0.03 4.7 0.05 3.1 0.15L3.1 0.15Q2.6 0.15 2.4-0.2 2.2-0.55 2.2-0.95L2.2-0.95Q2.25-1.8 2.6-1.9 2.95-2 3.45-2L3.45-2Q5.05-2 5.68-2.58 6.3-3.15 6.45-4.03 6.6-4.9 6.6-5.85L6.6-5.85 6.7-25.7Q6.7-27.3 6.35-28.08 6-28.85 5.25-29.18 4.5-29.5 3.35-29.7L3.35-29.7Q2.65-29.85 2.38-29.95 2.1-30.05 2.1-30.85L2.1-30.85Q2.1-31.7 2.7-31.78 3.3-31.85 4.1-31.85L4.1-31.85Q6.55-31.85 8.43-31.45 10.3-31.05 11.7-29.93 13.1-28.8 14-26.55L14-26.55 22.6-7.25 22.75-7.25 32.6-31.55 35.45-31.55Q36.95-31.55 38.38-31.6 39.8-31.65 41.4-31.7L41.4-31.7Q41.9-31.7 42.1-31.35 42.3-31 42.3-30.6L42.3-30.6Q42.25-29.75 41.9-29.65 41.55-29.55 41.05-29.55L41.05-29.55Q39.5-29.55 38.83-28.98 38.15-28.4 38-27.53 37.85-26.65 37.8-25.7L37.8-25.7 37.8-5.85Q37.85-4.9 38-4.03 38.15-3.15 38.83-2.58 39.5-2 41.05-2L41.05-2Q41.55-2 41.9-1.9 42.25-1.8 42.3-0.95L42.3-0.95Q42.3-0.55 42.1-0.2 41.9 0.15 41.4 0.15L41.4 0.15Q39.8 0.05 38.35 0.03 36.9 0 35.4 0L35.4 0Q32.5 0 29.25 0.15L29.25 0.15Q28.75 0.15 28.55-0.2 28.35-0.55 28.35-0.95L28.35-0.95Q28.4-1.8 28.75-1.9 29.1-2 29.6-2L29.6-2Q31.2-2 31.85-2.58 32.5-3.15 32.68-4.03 32.85-4.9 32.85-5.85L32.85-5.85 32.85-25.7 32.7-25.7 22.4-0.25Q22.3 0 22 0.13 21.7 0.25 21.4 0.25ZM55.3 0.6L55.3 0.6Q51.8 0.6 49.17-1.05 46.55-2.7 45.1-5.35 43.65-8 43.65-11L43.65-11Q43.65-13.95 44.7-16.25 45.75-18.55 47.47-20.1 49.2-21.65 51.25-22.45 53.3-23.25 55.3-23.25L55.3-23.25Q58.8-23.25 61.42-21.6 64.05-19.95 65.5-17.3 66.95-14.65 66.95-11.65L66.95-11.65Q66.95-8.7 65.87-6.4 64.8-4.1 63.07-2.55 61.35-1 59.3-0.2 57.25 0.6 55.3 0.6ZM55.3-1.25L55.3-1.25Q57.75-1.25 59.17-2.7 60.6-4.15 61.22-6.53 61.85-8.9 61.85-11.65L61.85-11.65Q61.85-14.3 61.2-16.5 60.55-18.7 59.1-20.05 57.65-21.4 55.3-21.4L55.3-21.4Q52.85-21.4 51.4-19.98 49.95-18.55 49.35-16.23 48.75-13.9 48.75-11.1L48.75-11.1Q48.75-8.5 49.37-6.25 50-4 51.45-2.63 52.9-1.25 55.3-1.25ZM82.4 0.5L80.3 0.5Q79.05-2.25 77.8-5.5 76.55-8.75 75.34-11.85 74.15-14.95 73.05-17.25L73.05-17.25Q72.25-19.1 71.5-19.88 70.75-20.65 69.25-20.85L69.25-20.85Q68.59-20.95 68.37-21.05 68.15-21.15 68.09-21.8L68.09-21.8Q68.05-22.65 68.57-22.73 69.09-22.8 69.84-22.85L69.84-22.85Q72.95-23 74.7-21.95 76.45-20.9 77.55-18.4L77.55-18.4Q78.25-16.85 79.12-14.55 80-12.25 80.95-9.9 81.9-7.55 82.8-5.65L82.8-5.65 82.95-5.65 87.9-18.75Q88.4-20.2 87.95-20.55 87.5-20.9 86-20.9L86-20.9Q85.55-20.9 85.25-20.98 84.95-21.05 84.9-21.8L84.9-21.8Q84.9-22.1 85.07-22.45 85.25-22.8 85.59-22.8L85.59-22.8Q87.05-22.75 88.09-22.7 89.15-22.65 90.45-22.65L90.45-22.65Q91.34-22.65 91.9-22.68 92.45-22.7 93.05-22.73 93.65-22.75 94.59-22.8L94.59-22.8Q95-22.8 95.17-22.45 95.34-22.1 95.34-21.8L95.34-21.8Q95.3-21.05 94.97-20.98 94.65-20.9 94.25-20.9L94.25-20.9Q92.59-20.9 91.62-20.3 90.65-19.7 89.95-17.95L89.95-17.95Q89.95-17.95 89.42-16.63 88.9-15.3 88.05-13.2 87.2-11.1 86.25-8.75 85.3-6.4 84.42-4.3 83.55-2.2 83-0.85 82.45 0.5 82.4 0.5L82.4 0.5ZM97.74 0.15L97.74 0.15Q97.39 0.15 97.17-0.18 96.94-0.5 96.94-0.85L96.94-0.85Q97.04-1.6 97.34-1.68 97.64-1.75 98.14-1.75L98.14-1.75Q99.54-1.75 100.04-2.23 100.54-2.7 100.62-3.5 100.69-4.3 100.69-5.15L100.69-5.15 100.69-16.6Q100.69-17.5 100.62-18.28 100.54-19.05 100.04-19.53 99.54-20 98.14-20L98.14-20Q97.69-20 97.32-20.13 96.94-20.25 96.94-21L96.94-21Q96.94-21.75 97.74-21.9L97.74-21.9Q100.04-22.25 101.27-22.6 102.49-22.95 103.14-23.2 103.79-23.45 104.29-23.5L104.29-23.5Q104.69-23.55 104.97-23.35 105.24-23.15 105.24-22.55L105.24-22.55 105.24-5.15Q105.24-4.3 105.32-3.5 105.39-2.7 105.92-2.23 106.44-1.75 107.84-1.75L107.84-1.75Q108.29-1.75 108.62-1.68 108.94-1.6 108.99-0.85L108.99-0.85Q108.99-0.5 108.79-0.18 108.59 0.15 108.19 0.15L108.19 0.15Q106.74 0.05 105.52 0.03 104.29 0 102.94 0L102.94 0Q101.59 0 100.39 0.03 99.19 0.05 97.74 0.15ZM102.69-29.05L102.69-29.05Q101.29-29.05 100.34-29.93 99.39-30.8 99.39-32.1L99.39-32.1Q99.39-33.25 100.54-34.15 101.69-35.05 103.14-35.05L103.14-35.05Q104.39-35.05 105.19-34.18 105.99-33.3 105.99-31.95L105.99-31.95Q105.99-30.75 105.04-29.9 104.09-29.05 102.69-29.05ZM123.49 0.6L123.49 0.6Q119.64 0.6 117.02-1.05 114.39-2.7 113.09-5.45 111.79-8.2 111.79-11.45L111.79-11.45Q111.79-13.65 112.57-15.73 113.34-17.8 114.79-19.53 116.24-21.25 118.29-22.25 120.34-23.25 122.94-23.25L122.94-23.25Q127.54-23.25 129.87-20.88 132.19-18.5 132.54-14.85L132.54-14.85Q132.54-13.1 131.56-12.55 130.59-12 129.04-12L129.04-12 116.89-12Q116.89-9.1 117.69-6.83 118.49-4.55 120.22-3.23 121.94-1.9 124.79-1.9L124.79-1.9Q126.89-1.9 128.39-2.8 129.89-3.7 131.29-5.95L131.29-5.95Q131.69-6.45 132.39-6L132.39-6Q132.79-5.8 132.89-5.38 132.99-4.95 132.79-4.65L132.79-4.65Q131.24-2.2 128.89-0.8 126.54 0.6 123.49 0.6ZM116.89-13.9L116.89-13.9 125.04-13.9Q126.24-13.9 126.97-14.38 127.69-14.85 127.74-16L127.74-16Q127.74-18.15 126.57-19.83 125.39-21.5 122.94-21.5L122.94-21.5Q120.44-21.5 118.77-19.5 117.09-17.5 116.89-13.9ZM155.34 0.25L155.34 0.25Q155.04 0.25 154.74 0.13 154.44 0 154.29-0.25L154.29-0.25 143.04-25.7 142.89-25.7 142.99-5.85Q143.04-4.9 143.16-4.03 143.29-3.15 143.94-2.58 144.59-2 146.14-2L146.14-2Q146.69-2 147.04-1.9 147.39-1.8 147.44-0.95L147.44-0.95Q147.44-0.55 147.21-0.2 146.99 0.15 146.54 0.15L146.54 0.15Q145.49 0.1 144.84 0.08 144.19 0.05 143.59 0.03 142.99 0 141.99 0L141.99 0Q140.49 0 139.56 0.03 138.64 0.05 137.04 0.15L137.04 0.15Q136.54 0.15 136.34-0.2 136.14-0.55 136.14-0.95L136.14-0.95Q136.19-1.8 136.54-1.9 136.89-2 137.39-2L137.39-2Q138.99-2 139.61-2.58 140.24-3.15 140.39-4.03 140.54-4.9 140.54-5.85L140.54-5.85 140.64-25.7Q140.64-27.3 140.29-28.08 139.94-28.85 139.19-29.18 138.44-29.5 137.29-29.7L137.29-29.7Q136.59-29.85 136.31-29.95 136.04-30.05 136.04-30.85L136.04-30.85Q136.04-31.7 136.64-31.78 137.24-31.85 138.04-31.85L138.04-31.85Q140.49-31.85 142.36-31.45 144.24-31.05 145.64-29.93 147.04-28.8 147.94-26.55L147.94-26.55 156.54-7.25 156.69-7.25 166.54-31.55 169.39-31.55Q170.89-31.55 172.31-31.6 173.74-31.65 175.34-31.7L175.34-31.7Q175.84-31.7 176.04-31.35 176.24-31 176.24-30.6L176.24-30.6Q176.19-29.75 175.84-29.65 175.49-29.55 174.99-29.55L174.99-29.55Q173.44-29.55 172.76-28.98 172.09-28.4 171.94-27.53 171.79-26.65 171.74-25.7L171.74-25.7 171.74-5.85Q171.79-4.9 171.94-4.03 172.09-3.15 172.76-2.58 173.44-2 174.99-2L174.99-2Q175.49-2 175.84-1.9 176.19-1.8 176.24-0.95L176.24-0.95Q176.24-0.55 176.04-0.2 175.84 0.15 175.34 0.15L175.34 0.15Q173.74 0.05 172.29 0.03 170.84 0 169.34 0L169.34 0Q166.44 0 163.19 0.15L163.19 0.15Q162.69 0.15 162.49-0.2 162.29-0.55 162.29-0.95L162.29-0.95Q162.34-1.8 162.69-1.9 163.04-2 163.54-2L163.54-2Q165.14-2 165.79-2.58 166.44-3.15 166.61-4.03 166.79-4.9 166.79-5.85L166.79-5.85 166.79-25.7 166.64-25.7 156.34-0.25Q156.24 0 155.94 0.13 155.64 0.25 155.34 0.25ZM185.23 0.6L185.23 0.6Q182.18 0.6 180.36-1.15 178.53-2.9 178.53-5.35L178.53-5.35Q178.53-7.9 179.86-9.35 181.18-10.8 183.36-11.5 185.53-12.2 188.11-12.45 190.68-12.7 193.13-12.85L193.13-12.85 193.13-16.8Q193.13-19.15 191.96-20.48 190.78-21.8 187.98-21.8L187.98-21.8Q186.58-21.8 185.36-20.9 184.13-20 184.13-18.3L184.13-18.3Q184.13-17.5 184.53-16.95 184.93-16.4 185.33-16.1 185.73-15.8 185.73-15.7L185.73-15.7Q185.73-15.5 185.16-14.98 184.58-14.45 183.58-14.45L183.58-14.45Q182.03-14.45 181.18-15.6 180.33-16.75 180.33-18.15L180.33-18.15Q180.33-20.05 181.51-21.15 182.68-22.25 184.53-22.75 186.38-23.25 188.28-23.25L188.28-23.25Q190.53-23.25 192.66-22.7 194.78-22.15 196.16-20.6 197.53-19.05 197.53-15.95L197.53-15.95 197.53-4.3Q197.58-3.8 197.78-3.1 197.98-2.4 198.56-1.88 199.13-1.35 200.13-1.35L200.13-1.35Q200.48-1.35 200.68-1.23 200.88-1.1 200.88-0.55L200.88-0.55Q200.88-0.1 200.38 0.15 199.88 0.4 199.23 0.5 198.58 0.6 198.13 0.6L198.13 0.6Q196.28 0.6 194.83-0.48 193.38-1.55 193.13-3.45L193.13-3.45Q192.03-1.45 189.86-0.43 187.68 0.6 185.23 0.6ZM186.83-2.1L186.83-2.1Q188.53-2.1 189.96-2.95 191.38-3.8 192.26-5.28 193.13-6.75 193.13-8.55L193.13-8.55 193.13-11.4Q187.98-11.05 185.78-9.75 183.58-8.45 183.58-5.5L183.58-5.5Q183.58-2.1 186.83-2.1ZM204.08 0.15L204.08 0.15Q203.73 0.15 203.51-0.18 203.28-0.5 203.28-0.85L203.28-0.85Q203.38-1.6 203.68-1.68 203.98-1.75 204.48-1.75L204.48-1.75Q205.88-1.75 206.38-2.23 206.88-2.7 206.96-3.5 207.03-4.3 207.03-5.15L207.03-5.15 207.03-16.6Q207.03-17.5 206.96-18.28 206.88-19.05 206.38-19.53 205.88-20 204.48-20L204.48-20Q204.03-20 203.66-20.13 203.28-20.25 203.28-21L203.28-21Q203.28-21.75 204.08-21.9L204.08-21.9Q206.38-22.25 207.61-22.6 208.83-22.95 209.46-23.2 210.08-23.45 210.58-23.5L210.58-23.5Q210.98-23.55 211.26-23.35 211.53-23.15 211.53-22.55L211.53-22.55 211.53-19.4 211.68-19.4Q212.68-20.35 213.73-21.23 214.78-22.1 216.21-22.68 217.63-23.25 219.73-23.25L219.73-23.25Q223.13-23.25 225.13-21.2 227.13-19.15 227.13-15.8L227.13-15.8 227.13-5.15Q227.13-4.3 227.21-3.5 227.28-2.7 227.81-2.23 228.33-1.75 229.73-1.75L229.73-1.75Q230.18-1.75 230.51-1.68 230.83-1.6 230.88-0.85L230.88-0.85Q230.88-0.5 230.68-0.18 230.48 0.15 230.08 0.15L230.08 0.15Q228.63 0.05 227.41 0.03 226.18 0 224.83 0L224.83 0Q223.48 0 222.28 0.03 221.08 0.05 219.63 0.15L219.63 0.15Q219.28 0.15 219.06-0.18 218.83-0.5 218.83-0.85L218.83-0.85Q218.88-1.6 219.21-1.68 219.53-1.75 219.98-1.75L219.98-1.75Q221.38-1.75 221.91-2.23 222.43-2.7 222.51-3.5 222.58-4.3 222.58-5.15L222.58-5.15 222.58-15.75Q222.58-17.4 221.86-18.45 221.13-19.5 220.03-20 218.93-20.5 217.78-20.5L217.78-20.5Q216.08-20.5 214.78-19.88 213.48-19.25 212.68-18.45 211.88-17.65 211.58-17.05L211.58-17.05 211.58-5.15Q211.58-4.3 211.66-3.5 211.73-2.7 212.26-2.23 212.78-1.75 214.18-1.75L214.18-1.75Q214.63-1.75 214.96-1.68 215.28-1.6 215.33-0.85L215.33-0.85Q215.33-0.5 215.13-0.18 214.93 0.15 214.53 0.15L214.53 0.15Q213.08 0.05 211.86 0.03 210.63 0 209.28 0L209.28 0Q207.93 0 206.73 0.03 205.53 0.05 204.08 0.15ZM234.03 0.15L234.03 0.15Q233.68 0.15 233.45-0.18 233.23-0.5 233.23-0.85L233.23-0.85Q233.33-1.6 233.63-1.68 233.93-1.75 234.43-1.75L234.43-1.75Q235.83-1.75 236.33-2.23 236.83-2.7 236.9-3.5 236.98-4.3 236.98-5.15L236.98-5.15 236.98-16.6Q236.98-17.5 236.9-18.28 236.83-19.05 236.33-19.53 235.83-20 234.43-20L234.43-20Q233.98-20 233.6-20.13 233.23-20.25 233.23-21L233.23-21Q233.23-21.75 234.03-21.9L234.03-21.9Q236.33-22.25 237.55-22.6 238.78-22.95 239.43-23.2 240.08-23.45 240.58-23.5L240.58-23.5Q240.98-23.55 241.25-23.35 241.53-23.15 241.53-22.55L241.53-22.55 241.53-5.15Q241.53-4.3 241.6-3.5 241.68-2.7 242.2-2.23 242.73-1.75 244.13-1.75L244.13-1.75Q244.58-1.75 244.9-1.68 245.23-1.6 245.28-0.85L245.28-0.85Q245.28-0.5 245.08-0.18 244.88 0.15 244.48 0.15L244.48 0.15Q243.03 0.05 241.8 0.03 240.58 0 239.23 0L239.23 0Q237.88 0 236.68 0.03 235.48 0.05 234.03 0.15ZM238.98-29.05L238.98-29.05Q237.58-29.05 236.63-29.93 235.68-30.8 235.68-32.1L235.68-32.1Q235.68-33.25 236.83-34.15 237.98-35.05 239.43-35.05L239.43-35.05Q240.68-35.05 241.48-34.18 242.28-33.3 242.28-31.95L242.28-31.95Q242.28-30.75 241.33-29.9 240.38-29.05 238.98-29.05ZM254.78 0.6L254.78 0.6Q251.73 0.6 249.9-1.15 248.08-2.9 248.08-5.35L248.08-5.35Q248.08-7.9 249.4-9.35 250.73-10.8 252.9-11.5 255.08-12.2 257.65-12.45 260.23-12.7 262.68-12.85L262.68-12.85 262.68-16.8Q262.68-19.15 261.5-20.48 260.33-21.8 257.53-21.8L257.53-21.8Q256.13-21.8 254.9-20.9 253.68-20 253.68-18.3L253.68-18.3Q253.68-17.5 254.08-16.95 254.48-16.4 254.88-16.1 255.28-15.8 255.28-15.7L255.28-15.7Q255.28-15.5 254.7-14.98 254.13-14.45 253.13-14.45L253.13-14.45Q251.58-14.45 250.73-15.6 249.88-16.75 249.88-18.15L249.88-18.15Q249.88-20.05 251.05-21.15 252.23-22.25 254.08-22.75 255.93-23.25 257.83-23.25L257.83-23.25Q260.08-23.25 262.2-22.7 264.33-22.15 265.7-20.6 267.08-19.05 267.08-15.95L267.08-15.95 267.08-4.3Q267.13-3.8 267.33-3.1 267.53-2.4 268.1-1.88 268.68-1.35 269.68-1.35L269.68-1.35Q270.03-1.35 270.23-1.23 270.43-1.1 270.43-0.55L270.43-0.55Q270.43-0.1 269.93 0.15 269.43 0.4 268.78 0.5 268.13 0.6 267.68 0.6L267.68 0.6Q265.83 0.6 264.38-0.48 262.93-1.55 262.68-3.45L262.68-3.45Q261.58-1.45 259.4-0.43 257.23 0.6 254.78 0.6ZM256.38-2.1L256.38-2.1Q258.08-2.1 259.5-2.95 260.93-3.8 261.8-5.28 262.68-6.75 262.68-8.55L262.68-8.55 262.68-11.4Q257.53-11.05 255.33-9.75 253.13-8.45 253.13-5.5L253.13-5.5Q253.13-2.1 256.38-2.1Z" opacity="1" transform="matrix(1,0,0,1,0,0)" fill="#ff5c40" class="wordmark-text-0" data-fill-palette-color="primary" id="text-0"></path></svg></g></svg></g></svg></g></svg></g><g transform="matrix(1,0,0,1,136.0044822337422,0)"><svg viewBox="0 0 123.51103553251555 123.51103553251555" height="123.51103553251555" width="123.51103553251555"><g><svg></svg></g><g id="icon-0"><svg viewBox="0 0 123.51103553251555 123.51103553251555" height="123.51103553251555" width="123.51103553251555"><g><path d="M0 61.756c0-34.107 27.649-61.756 61.756-61.756 34.107 0 61.756 27.649 61.755 61.756 0 34.107-27.649 61.756-61.755 61.755-34.107 0-61.756-27.649-61.756-61.755zM61.756 118.773c31.49 0 57.017-25.527 57.017-57.017 0-31.49-25.527-57.017-57.017-57.017-31.49 0-57.017 25.527-57.017 57.017 0 31.49 25.527 57.017 57.017 57.017z" data-fill-palette-color="accent" fill="#d95d5d" stroke="transparent"></path></g><g transform="matrix(1,0,0,1,34.859505071167476,30.080356867638706)"><svg viewBox="0 0 53.79202539018059 63.35032179723814" height="63.35032179723814" width="53.79202539018059"><g><svg xmlns="http://www.w3.org/2000/svg" xmlns:xlink="http://www.w3.org/1999/xlink" version="1.1" x="0" y="0" viewBox="0 0 84.91200023000631 100" enable-background="new 0 0 84.911 100" xml:space="preserve" id="dxe-0" width="53.79202539018059" height="63.35032179723814" class="icon-dxe-0" data-fill-palette-color="accent"><g fill="#d95d5d" data-fill-palette-color="accent"><path fill="#d95d5d" d="M22.86 73.874C19.86 73.874 17.418 76.315 17.418 79.316A5.45 5.45 0 0 0 22.86 84.76 5.45 5.45 0 0 0 28.303 79.316 5.45 5.45 0 0 0 22.86 73.874M22.86 80.406A1.09 1.09 0 0 1 22.86 78.228 1.09 1.09 0 0 1 22.86 80.406" data-fill-palette-color="accent"></path><path fill="#d95d5d" d="M56.606 79.316C56.606 82.319 59.049 84.76 62.05 84.76S67.494 82.319 67.494 79.316C67.494 76.315 65.051 73.874 62.05 73.874S56.606 76.315 56.606 79.316M62.051 78.228A1.09 1.09 0 0 1 63.139 79.316 1.089 1.089 0 1 1 62.051 78.228" data-fill-palette-color="accent"></path><path fill="#d95d5d" d="M71.021 36.336V11.112A4.355 4.355 0 0 0 66.667 6.756H17.793A4.355 4.355 0 0 0 13.439 11.112V36.336A4.354 4.354 0 0 0 17.793 40.69H66.668A4.355 4.355 0 0 0 71.021 36.336M17.793 11.112H66.668V36.336H17.793z" data-fill-palette-color="accent"></path><path fill="#d95d5d" d="M41.548 14.181C36.136 14.181 31.751 18.568 31.751 23.979S36.136 33.777 41.548 33.777C46.959 33.777 51.346 29.39 51.346 23.979S46.959 14.181 41.548 14.181M47.1 25.165L44.986 26.388C43.947 26.989 42.252 27.967 41.213 28.566L39.098 29.787C38.061 30.386 37.211 29.895 37.211 28.699V19.457C37.211 18.261 38.061 17.77 39.098 18.369L41.213 19.589C42.252 20.188 43.947 21.166 44.986 21.767L47.1 22.99C48.139 23.587 48.139 24.565 47.1 25.165" data-fill-palette-color="accent"></path><path fill="#d95d5d" d="M82.735 62.988H63.065V57.883A4.357 4.357 0 0 0 58.709 53.529H54.361C54.398 53.309 54.43 47.749 54.43 47.749H73.284A6.137 6.137 0 0 0 79.413 41.618V6.131A6.136 6.136 0 0 0 73.285 0H11.177A6.136 6.136 0 0 0 5.048 6.131V41.617A6.136 6.136 0 0 0 11.177 47.748H28.378S28.412 53.309 28.446 53.528H23.949A4.355 4.355 0 0 0 19.595 57.882V62.987H2.177A2.18 2.18 0 0 0 0 65.166V97.822C0 99.026 0.975 100 2.177 100H15.241L15.24 93.468H69.671V100H82.736A2.18 2.18 0 0 0 84.912 97.821V65.166A2.177 2.177 0 0 0 82.735 62.988M11.177 43.394A1.78 1.78 0 0 1 9.402 41.617V6.131C9.402 5.155 10.201 4.354 11.177 4.354H73.285C74.259 4.354 75.057 5.155 75.057 6.131V41.617C75.057 42.593 74.258 43.394 73.285 43.394zM50.074 47.748V52.852H32.733V47.748zM23.949 57.882H58.709V62.987H23.949zM80.557 95.646H74.025V89.114H10.886V95.646H4.354V67.341H80.557z" data-fill-palette-color="accent"></path></g></svg></g></svg></g></svg></g></svg></g><g></g></svg></g><defs></defs></svg><rect width="395.52" height="200.86436953577996" fill="none" stroke="none" visibility="hidden"></rect></g></svg></g></svg>